<?xml version="1.0" standalone="no"?>
<!DOCTYPE svg PUBLIC "-//W3C//DTD SVG 20010904//EN"
 "http://www.w3.org/TR/2001/REC-SVG-20010904/DTD/svg10.dtd">
<svg version="1.0" xmlns="http://www.w3.org/2000/svg"
 width="480.000000pt" height="480.000000pt" viewBox="0 0 480.000000 480.000000"
 preserveAspectRatio="xMidYMid meet">
<metadata>
Created by potrace 1.11, written by Peter Selinger 2001-2013
</metadata>
<g transform="translate(0.000000,480.000000) scale(0.100000,-0.100000)"
fill="#000000" stroke="none">
<path d="M2209 4795 c-2 -1 -32 -6 -65 -9 -34 -3 -85 -11 -113 -16 -29 -5 -55
-9 -59 -8 -4 1 -39 -6 -78 -16 -38 -9 -79 -19 -90 -21 -10 -2 -19 -4 -19 -5 0
-1 -7 -3 -15 -5 -34 -7 -104 -27 -129 -37 -14 -6 -28 -12 -31 -13 -108 -27
-366 -155 -529 -263 -181 -119 -386 -300 -506 -446 -22 -27 -44 -54 -50 -60
-5 -6 -23 -29 -39 -51 -17 -22 -32 -42 -35 -45 -27 -24 -161 -250 -212 -358
-71 -150 -154 -381 -173 -482 -2 -14 -11 -56 -19 -95 -34 -158 -41 -240 -41
-470 0 -104 3 -215 6 -245 15 -122 19 -146 33 -200 0 -3 4 -27 9 -53 11 -69
67 -255 110 -367 40 -103 149 -325 172 -351 8 -8 14 -19 14 -23 0 -7 90 -143
115 -175 8 -9 42 -52 77 -96 121 -153 299 -319 483 -450 277 -198 655 -353
975 -400 19 -3 44 -7 55 -10 93 -19 481 -28 595 -13 30 4 78 10 105 14 67 8
214 40 299 65 38 12 77 22 86 24 10 2 32 11 49 19 17 9 33 16 36 16 42 -7 491
225 545 280 3 3 32 25 65 49 298 220 547 520 721 871 69 140 150 357 170 460
3 14 9 44 15 68 5 23 12 59 15 80 3 20 8 46 11 56 25 87 39 530 20 641 -3 17
-9 59 -12 95 -4 36 -11 73 -16 83 -6 9 -8 17 -5 17 2 0 -5 37 -15 83 -11 45
-22 93 -25 107 -27 128 -144 400 -254 590 -127 218 -385 513 -565 645 -22 17
-42 33 -45 36 -13 16 -175 123 -250 166 -151 86 -289 149 -435 198 -86 28
-287 80 -345 89 -19 2 -55 7 -80 11 -25 3 -58 9 -75 11 -36 6 -451 14 -456 9z
m361 -809 c103 -12 345 -65 336 -73 -2 -3 -117 -5 -255 -5 l-251 -1 -49 -91
c-27 -50 -68 -125 -90 -166 -23 -41 -51 -95 -63 -120 -13 -25 -25 -47 -28 -50
-3 -3 -20 -34 -38 -70 -18 -36 -51 -99 -73 -140 -22 -41 -56 -104 -75 -140
-89 -167 -140 -259 -145 -264 -7 -7 -349 -9 -356 -3 -2 3 10 31 28 63 17 33
59 111 92 174 33 63 63 119 68 125 5 5 9 12 9 15 0 3 -144 5 -319 5 -275 -1
-317 1 -305 13 8 8 22 28 31 45 8 17 21 36 27 43 6 7 22 27 36 45 29 38 189
200 240 244 19 16 75 57 125 90 219 146 481 240 730 262 39 3 71 6 72 7 5 4
202 -2 253 -8z m991 -493 c279 -302 431 -684 433 -1088 0 -88 -9 -212 -19
-261 -3 -13 -7 -34 -10 -47 l-4 -23 -226 0 c-124 -1 -225 3 -225 8 0 4 11 26
25 48 14 22 25 42 25 45 0 2 16 29 35 59 19 30 35 57 35 59 0 3 18 34 40 70
129 213 106 438 -61 592 -61 57 -168 114 -241 131 -5 1 -10 3 -13 4 -9 4 -25
7 -45 9 -29 2 -25 21 20 99 22 38 40 72 40 76 0 3 11 23 24 44 13 20 44 76 70
125 26 48 50 87 54 87 5 0 24 -17 43 -37z m-1421 -1478 c0 -3 -8 -19 -18 -37
-29 -53 -51 -118 -60 -183 -21 -133 29 -285 125 -378 56 -55 144 -107 218
-131 33 -10 67 -21 75 -23 8 -3 24 -7 35 -8 11 -1 45 -6 75 -10 90 -13 89 -13
500 -14 l395 -2 -30 -25 c-67 -58 -192 -147 -259 -186 -65 -39 -253 -124 -294
-133 -9 -3 -48 -14 -86 -24 -37 -11 -87 -23 -109 -27 -23 -3 -44 -7 -47 -9
-13 -8 -164 -18 -270 -18 -124 0 -186 6 -295 29 -93 20 -93 20 -145 35 -25 7
-47 13 -50 13 -19 4 -130 51 -220 94 -120 58 -235 138 -369 257 -59 52 -180
196 -236 280 -66 99 -150 261 -167 323 -1 4 -14 42 -29 85 -15 42 -24 79 -20
81 3 2 271 4 595 4 323 1 590 2 592 4 5 5 94 7 94 3z"/>
</g>
</svg>
